<svg width="1091" height="1125" viewBox="0 0 1091 1125" fill="none" xmlns="http://www.w3.org/2000/svg">
<g opacity="0.1">
<path d="M938.274 947.412C917.496 953.514 898.208 956.578 880.326 956.578C860.841 956.578 851.085 952.248 851.085 943.588C851.085 939.821 853.166 935.21 857.327 929.811C866.887 919.914 876.474 910.074 886.034 900.345C899.586 886.118 906.334 875.125 906.334 867.337C906.334 857.074 895.762 851.929 874.647 851.929C865.256 851.929 858.311 853.756 853.784 857.355C850.017 860.251 846.305 866.043 842.678 874.703C842.144 876.165 842.06 877.065 842.397 877.402C842.763 877.768 843.578 877.683 844.843 877.121C850.635 874.394 855.977 873.016 860.813 873.016C869.67 873.016 877.964 874.366 885.725 877.065C889.183 878.33 889.801 880.158 887.636 882.463C877.177 893.485 866.774 904.478 856.483 915.472C846.024 927.927 840.794 940.383 840.766 952.811C840.766 959.84 843.578 965.66 849.173 970.271C854.768 974.882 861.994 977.159 870.823 977.159C899.192 977.159 922.388 969.062 940.439 952.811C944.769 949.043 946.934 946.766 946.934 946.063C946.934 945.36 944.066 945.781 938.274 947.412Z" fill="url(#paint0_linear)"/>
<path d="M835.902 267.331C814.421 280.124 793.025 292.833 771.713 305.429C766.68 308.691 764.149 310.828 764.121 311.924C764.121 312.29 764.487 312.458 765.19 312.458C766.652 312.458 769.632 311.643 774.131 310.04C803.034 299.412 818.92 293.367 821.788 291.933C835.537 285.804 850.607 276.722 867.027 264.632C881.479 254.004 893.401 242.195 902.791 229.205C910.552 233.732 914.432 237.05 914.432 239.215C914.432 239.58 911.789 247.734 906.475 263.676C901.161 279.618 898.49 292.271 898.49 301.633C898.49 321.09 904.366 330.818 916.091 330.818C927.084 330.818 935.041 317.604 939.905 291.118C940.13 289.853 940.13 288.953 939.905 288.419C939.905 287.885 939.624 287.8 939.09 288.138C938.556 288.672 937.993 289.487 937.459 290.556C931.498 301.887 926.184 307.538 921.489 307.538C913.363 307.538 909.315 300.059 909.315 285.101C909.315 272.308 913.841 255.382 922.839 234.295C925.172 228.896 926.353 224.763 926.353 221.867C926.353 216.3 922.107 211.07 913.616 206.178C917.581 194.313 919.577 183.572 919.577 174.013C919.577 163.413 916.597 157.002 910.636 154.837C903.607 152.335 894.75 155.793 884.094 165.241C873.438 174.716 868.096 185.288 868.096 196.984C868.096 206.544 876.503 215.653 893.288 224.285C880.692 237.528 861.545 251.839 835.902 267.331ZM883.56 185.147C883.56 183.348 885.275 181.492 888.705 179.608C892.135 177.724 894.863 176.768 896.831 176.768C900.992 176.768 903.607 179.664 904.675 185.428C905.575 190.658 905.238 195.887 903.607 201.117C890.252 194.622 883.56 189.28 883.56 185.147Z" fill="url(#paint1_linear)"/>
<path d="M152.701 300.621C154.163 300.621 157.143 299.806 161.642 298.203C190.545 287.575 206.431 281.53 209.299 280.096C223.048 273.967 238.118 264.857 254.538 252.767C268.99 242.139 280.912 230.33 290.302 217.34C298.428 222.232 303.573 226.394 305.738 229.852C313.33 219.055 317.126 211.38 317.126 206.853C314.961 203.423 309.618 199.289 301.127 194.425C306.188 178.033 308.072 165.409 306.807 156.552C321.99 142.494 331.746 123.572 336.076 99.7572C336.442 97.789 336.61 95.9896 336.61 94.3588C336.61 86.7955 332.28 82.9998 323.592 82.9998C314.736 82.9998 302.364 87.7796 286.451 97.3391C270.031 107.264 256.029 118.792 244.445 131.951C222.457 156.862 211.436 180.817 211.408 203.872C211.408 220.63 216.469 229.009 226.591 229.009C234.744 229.009 242.336 224.594 249.365 215.738C254.257 209.608 257.687 203.451 259.656 197.321C263.283 202.017 270.34 207.05 280.799 212.448C268.175 225.606 249.028 239.946 223.385 255.438C201.904 268.231 180.508 280.94 159.195 293.564C154.163 296.825 151.632 298.962 151.604 300.059C151.632 300.452 151.998 300.621 152.701 300.621ZM255.635 185.231C255.635 190.461 253.357 195.128 248.746 199.177C244.135 203.254 238.512 205.278 231.82 205.25C225.325 205.25 222.092 200.948 222.064 192.288C222.064 178.961 230.921 163.019 248.606 144.434C259.093 133.272 270.93 123.994 284.089 116.599C296.01 109.935 305.401 106.589 312.261 106.589C319.122 106.589 322.552 110.554 322.552 118.455C322.552 124.95 316.676 135.296 304.951 149.467C303.517 146.234 301.24 144.069 298.175 142.944C290.949 140.442 282.064 144.012 271.493 153.656C260.921 163.357 255.635 173.872 255.635 185.231ZM271.071 173.282C271.071 171.482 272.786 169.655 276.216 167.743C279.646 165.859 282.346 164.903 284.342 164.903C288.503 164.903 291.118 167.799 292.186 173.563C293.086 178.793 292.749 184.022 291.118 189.252C277.763 182.757 271.071 177.443 271.071 173.282Z" fill="url(#paint2_linear)"/>
<path d="M61.6595 848.583C61.1252 849.117 60.5629 849.932 60.0287 851.001C54.068 862.332 48.7259 868.011 44.0304 868.011C35.9048 868.011 31.8279 860.532 31.8279 845.574C31.8279 834.581 36.3546 815.405 45.4081 787.992C47.4044 781.863 48.3885 778.179 48.3885 776.914C48.3885 776.745 48.3041 776.661 48.1073 776.633C47.3763 776.83 45.3238 780.176 41.8655 786.642C27.9759 812.959 21.0312 838.095 21.0031 862.051C21.0031 881.507 26.8794 891.236 38.604 891.236C49.6256 891.236 57.5826 877.993 62.4467 851.507C62.6998 850.242 62.6998 849.342 62.4467 848.808C62.4748 848.302 62.1937 848.217 61.6595 848.583Z" fill="url(#paint3_linear)"/>
<path d="M568.234 500.698C568.234 500.529 568.149 500.445 567.953 500.417C567.222 500.614 565.169 503.959 561.711 510.426C547.821 536.743 540.876 561.879 540.848 585.835C540.848 605.291 546.725 615.019 558.449 615.019C569.471 615.019 577.428 601.777 582.292 575.291C582.545 574.026 582.545 573.126 582.292 572.592C582.292 572.057 582.011 571.973 581.477 572.311C580.942 572.845 580.38 573.66 579.846 574.729C573.885 586.059 568.543 591.739 563.848 591.739C555.722 591.739 551.645 584.26 551.645 569.302C551.645 558.309 556.172 539.133 565.225 511.72C567.222 505.675 568.234 501.991 568.234 500.698Z" fill="url(#paint4_linear)"/>
<path d="M1084.87 553.051C1080.71 547.456 1076.58 544.672 1072.42 544.672C1064.29 544.672 1056.81 552.882 1049.92 569.246C1043.6 592.133 1039.63 609.312 1038 620.84C1037.3 622.836 1036.82 623.989 1036.65 624.354C1036.49 624.889 1036.2 624.889 1035.84 624.354C1035.84 623.989 1035.67 622.836 1035.3 620.84C1032.07 601.552 1026.42 585.919 1018.38 573.942C1010.34 561.964 1001.26 555.975 991.133 555.947C990.065 555.947 987.45 559.434 983.289 566.35C979.127 573.295 977.047 577.372 977.047 578.609C977.047 581.308 979.549 584.935 984.498 589.406C989.474 593.904 993.467 596.154 996.532 596.154C999.259 596.154 1000.86 595.563 1001.42 594.326C1001.99 593.117 1003.25 592.498 1005.22 592.498C1008.12 592.498 1013.01 601.102 1019.84 618.281C1026.7 635.46 1030.13 647.016 1030.13 652.949C1030.13 656.716 1030.86 658.6 1032.3 658.6C1033.93 658.6 1035.92 656.548 1038.26 652.387C1041.52 646.257 1044.5 635.826 1047.2 621.065C1053.35 587.072 1060.02 570.062 1067.24 570.033C1070.51 570.033 1073.66 571.973 1076.75 575.854C1079.81 579.734 1081.81 581.674 1082.71 581.646C1084.87 581.646 1086.79 579.143 1088.39 574.082C1089.65 570.315 1090.3 567.25 1090.3 564.888C1090.27 561.908 1088.47 557.943 1084.87 553.051Z" fill="url(#paint5_linear)"/>
<path d="M486.949 915.556C477.108 907.881 469.489 904.057 464.062 904.057C452.703 904.057 445.73 915.697 443.2 938.949C442.834 942.914 443.115 944.91 444.015 944.91C444.577 944.91 446.63 942.576 450.257 937.881C453.884 933.185 456.668 930.824 458.636 930.824C462.797 930.824 467.127 933.101 471.625 937.572C460.632 940.833 453.125 944.066 449.16 947.3C440.866 954.16 436.705 964.901 436.705 979.465C436.705 983.795 439.798 1000.69 445.927 1030.16C452.085 1059.62 455.149 1084.82 455.149 1105.74C455.149 1118.36 455.712 1124.66 456.78 1124.66C457.342 1124.49 458.045 1122.49 458.945 1118.73C461.307 1107.73 462.488 1096.91 462.46 1086.28C462.46 1050.07 456.33 1013.37 444.015 976.232C448.345 971.368 456.049 967.15 467.043 963.523C475.899 961.189 484.728 958.743 493.584 956.213C494.681 955.847 496.565 952.67 499.264 946.625C501.963 940.58 503.228 936.84 503.06 935.406C502.16 929.839 496.79 923.204 486.949 915.556Z" fill="url(#paint6_linear)"/>
<path d="M405.018 211.801C406.648 211.801 409.713 210.986 414.24 209.383C443.144 198.755 459.029 192.738 461.897 191.276C475.646 185.147 490.717 176.065 507.137 164.003C525.384 150.507 537.671 136.618 543.969 122.391C546.443 116.796 548.13 112.691 549.086 110.104C549.536 109.429 549.986 108.67 550.492 107.827C553.754 101.697 556.734 91.266 559.433 76.4768C565.591 42.4559 572.254 25.4454 579.48 25.4173C582.742 25.4173 585.891 27.3573 588.955 31.2374C592.02 35.1175 594.016 37.0575 594.916 37.0294C597.081 37.0294 598.993 34.527 600.596 29.466C601.861 25.6984 602.48 22.6337 602.48 20.272C602.48 17.2073 600.68 13.2429 597.081 8.3787C592.92 2.81165 588.759 0 584.597 0C576.472 0 568.993 8.21001 562.104 24.5738C555.778 47.4606 551.814 64.6397 550.183 76.1675C549.48 78.1637 549.03 79.3165 548.833 79.682C548.665 80.2444 548.383 80.2444 548.018 79.682C548.018 79.3165 547.849 78.1637 547.456 76.1675C544.222 56.9077 538.571 41.2468 530.529 29.2692C522.488 17.2916 513.407 11.3028 503.285 11.2747C502.216 11.2747 499.573 14.7611 495.44 21.7059C491.279 28.6507 489.198 32.7838 489.198 34.0209C489.198 36.7482 491.701 40.3752 496.649 44.8739C501.626 49.4006 505.646 51.6499 508.711 51.6218C511.438 51.6218 513.041 51.0033 513.603 49.7099C514.166 48.4447 515.431 47.798 517.399 47.798C520.295 47.798 525.187 56.4016 532.02 73.6089C538.88 90.8162 542.31 102.372 542.31 108.305C542.31 110.413 542.535 111.96 542.985 112.888C541.467 114.603 539.695 116.683 537.699 119.101C532.301 125.765 524.091 133.328 513.041 141.791C469.348 170.414 435.58 191.417 411.737 204.744C406.508 207.977 403.893 210.142 403.893 211.211C403.949 211.633 404.287 211.801 405.018 211.801Z" fill="url(#paint7_linear)"/>
<path d="M737.157 266.657C738.226 264.154 738.423 262.608 737.691 262.046C737.157 261.68 735.442 262.046 732.546 263.142C658.319 290.556 587.184 316.873 519.114 342.149C514.784 350.809 511.72 358.822 509.892 366.217C593.876 332.309 667.007 303.911 729.285 280.996C731.281 279.365 733.896 274.585 737.157 266.657Z" fill="url(#paint8_linear)"/>
<path d="M799.014 135.859C801.01 134.059 803.625 129.308 806.858 121.519C807.955 119.017 808.123 117.471 807.42 116.908C806.886 116.543 805.143 116.908 802.275 118.005C646.622 176.431 494.034 233.648 344.511 289.684C340.181 298.513 337.116 306.723 335.289 314.286C501.429 248.69 656.013 189.224 799.014 135.859Z" fill="url(#paint9_linear)"/>
<path d="M615.919 462.235C619.546 467.099 623.792 469.545 628.628 469.545C641.618 469.545 650.559 460.519 655.423 442.497C659.753 456.555 667.063 463.584 677.354 463.584C683.849 463.584 689.163 458.72 693.324 448.964C696.388 441.4 697.935 434.09 697.935 427.061C697.935 423.293 696.501 417.782 693.605 410.556C688.938 398.494 686.492 392.253 686.323 391.887C685.254 388.654 684.439 384.493 683.905 379.432C683.539 375.833 683.005 374.033 682.274 374.033C681.571 374.23 680.306 375.748 678.506 378.644C675.807 382.806 674.458 387.585 674.458 392.984C674.458 402.375 679.519 415.899 689.641 433.584C688.375 438.617 685.226 441.147 680.165 441.147C668.441 441.147 662.564 433.584 662.564 418.429C662.564 413.228 661.243 405.102 658.628 394.108C656.013 383.115 653.905 377.632 652.246 377.604C651.346 377.604 649.996 379.544 648.197 383.424C646.397 387.304 645.498 390.144 645.47 391.915C645.47 393.912 646.482 399.057 648.45 407.351C650.446 415.646 651.43 421.522 651.402 424.924C651.402 430.885 649.293 436.058 645.048 440.472C640.802 444.887 636.276 447.108 631.383 447.108C627.616 447.108 624.438 444.324 621.908 438.729C619.771 433.865 618.675 428.804 618.675 423.574C618.675 421.072 619.068 418.092 619.856 414.661C620.643 411.231 621.008 406.986 621.008 401.925C621.008 392.196 619.771 387.332 617.241 387.304C615.273 387.304 612.405 389.385 608.609 393.518C604.476 398.213 602.423 402.993 602.423 407.857C602.423 410.922 603.66 412.834 606.078 413.537C608.525 414.268 609.734 415.533 609.734 417.304V439.488C609.706 448.907 611.786 456.471 615.919 462.235Z" fill="url(#paint10_linear)"/>
<path d="M998.472 689.697L679.772 683.511L627.644 683.708C634.082 678.338 639.115 673.98 642.714 670.662C666.979 651.768 702.377 631.664 748.966 610.324C780.991 595.31 805.986 584.654 823.925 578.356C828.789 595.366 833.4 603.857 837.758 603.829C843.578 603.857 845.771 592.723 844.309 570.427C883.616 557.859 917.103 547.456 944.741 539.217C952.023 521.335 958.096 502.216 962.932 481.86C962.932 466.368 945.725 447.024 911.254 423.771C878.724 401.025 853.756 389.638 836.268 389.638C813.943 389.638 797.214 397.651 786.052 413.621C776.352 426.695 771.487 442.694 771.487 461.56C771.487 473.2 773.428 483.125 777.308 491.335C785.574 508.289 791.872 520.408 796.258 527.662C735.133 548.018 671.112 584.316 604.166 636.585C577.006 657.897 560.614 673.389 554.288 684.017C543.632 706.792 536.574 724.224 532.441 737.27C529.545 744.074 533.903 747.448 545.544 747.448C587.522 747.448 666.726 751.075 783.128 758.329C729.285 776.998 693.155 790.747 674.711 798.732C618.028 822.238 588.843 859.914 587.128 910.973C583.276 907.627 579.424 904.141 575.628 900.458C555.272 880.636 539.021 843.691 526.874 789.707C516.443 734.514 506.124 679.462 495.946 624.495C475.815 525.019 444.409 447.445 401.728 391.747C397.117 385.955 393.743 387.417 391.55 396.105C389.61 403.612 387.417 415.477 384.999 431.7C382.103 449.385 381.119 459.198 382.075 461.11C418.232 539.555 441.147 597.784 450.847 635.769C463.472 684.917 469.77 720.737 469.77 743.259C469.77 753.212 468.448 760.719 465.777 765.78C465.552 766.286 461.166 772.219 452.675 783.578C425.261 820.635 387.079 855.724 338.072 888.874C275.26 931.976 216.553 953.513 161.979 953.513C122.194 953.513 102.316 933.776 102.316 894.328C102.316 868.911 113.366 829.604 135.437 776.324C140.301 764.458 142.691 756.361 142.691 752.003C142.691 751.047 142.466 750.428 141.96 750.175C139.795 750.175 134.818 757.457 127.058 771.966C99.8978 822.35 86.3175 874.141 86.3175 927.393C86.3175 953.317 91.7721 974.966 102.681 992.399C115.784 1013.46 135.071 1023.97 160.517 1023.97C209.018 1023.97 262.495 1005.44 320.949 968.415C371.643 936.222 414.83 898.096 450.454 854.037C468.42 832.022 480.426 803.709 486.471 769.07C494.962 839.529 506.124 889.38 519.93 918.677C539.33 959.84 577.428 992.314 635.151 1016.02C674.205 1031.54 708.535 1039.3 739.069 1039.3C745.367 1039.3 748.769 1036.63 749.247 1031.31L754.702 983.373C755.433 978.059 753.605 974.545 749.247 972.83C692.508 950.308 654.439 933.017 635.01 920.898C620.952 912.182 613.923 903.832 613.923 895.847C613.923 892.248 634.195 881.367 674.683 864.159C765.639 825.696 867.618 791.085 980.646 761.309C992.061 758.413 998.472 754.786 999.934 750.428L1017.03 700.325C1019.45 693.239 1013.29 689.725 998.472 689.697ZM802.078 458.551C812.762 456.639 829.379 460.379 851.929 469.826C874.506 479.273 885.753 486.893 885.753 492.685C876.531 497.549 855.443 505.281 822.435 515.909C809.838 491.223 801.6 473.566 797.692 462.909C796.736 460.969 798.198 459.507 802.078 458.551Z" fill="url(#paint11_linear)"/>
<path d="M210.817 797.102C215.794 801.6 219.786 803.849 222.851 803.849C225.578 803.849 227.181 803.259 227.743 802.022C228.306 800.813 229.571 800.194 231.539 800.194C234.435 800.194 239.327 808.798 246.16 825.977C253.02 843.156 256.45 854.712 256.45 860.645C256.45 864.412 257.181 866.296 258.615 866.296C260.246 866.296 262.242 864.244 264.576 860.082C267.837 853.953 270.818 843.522 273.517 828.761C279.674 794.768 286.338 777.757 293.564 777.729C296.825 777.729 299.974 779.669 303.067 783.549C306.132 787.429 308.128 789.369 309.028 789.341C311.193 789.341 313.105 786.839 314.708 781.778C315.973 778.01 316.619 774.946 316.619 772.584C316.619 769.519 314.82 765.555 311.193 760.691C307.032 755.096 302.899 752.312 298.737 752.312C290.612 752.312 283.133 760.522 276.244 776.886C269.918 799.773 265.954 816.952 264.323 828.48C263.62 830.476 263.142 831.629 262.973 831.994C262.805 832.528 262.523 832.528 262.158 831.994C262.158 831.629 261.989 830.476 261.624 828.48C258.39 809.192 252.739 793.559 244.698 781.581C236.656 769.604 227.575 763.615 217.453 763.587C216.384 763.587 213.769 767.073 209.608 773.99C205.447 780.935 203.366 785.011 203.366 786.249C203.366 789.004 205.841 792.603 210.817 797.102Z" fill="url(#paint12_linear)"/>
<path d="M287.435 574.279C287.35 571.776 287.097 567.362 286.675 561.12C277.566 561.429 266.797 561.767 254.37 562.189C255.269 566.547 256.113 571.186 256.9 576.106C274.67 575.206 283.555 574.728 283.555 574.728C284.257 574.7 285.523 574.56 287.435 574.279Z" fill="url(#paint13_linear)"/>
<path d="M24.6019 579.621C32.6151 581.336 47.6293 582.18 69.6445 582.18C75.9707 582.18 82.5781 582.151 89.4666 582.067C89.1292 577.09 88.8481 571.776 88.595 566.125C85.6147 566.125 82.7187 566.153 79.907 566.153C60.1412 566.153 44.7614 565.506 33.7679 564.213C23.9553 563.032 19.0068 561.57 19.0068 559.855C19.2879 557.465 28.0603 552.264 45.4362 544.222C57.4982 538.683 65.3708 532.751 68.9978 526.425C71.4721 522.151 73.0466 514.335 73.8058 502.947C74.7617 510.961 75.9988 516.584 77.489 519.761C79.9914 525.075 83.3372 529.433 87.5266 532.835C87.3017 525.637 87.0767 518.805 86.8518 512.17C83.0842 506.49 80.4412 497.69 78.923 485.853C77.6858 471.963 76.5049 458.074 75.324 444.184C74.3118 434.681 72.9904 426.386 71.3877 419.273C70.6848 415.983 69.757 412.44 68.5761 408.701C68.2106 407.52 67.8169 406.958 67.4514 406.93C67.1422 406.93 66.7485 407.492 66.3268 408.617C65.8488 409.966 64.9772 414.605 63.6838 422.562C64.9772 426.696 66.4674 436.986 68.1543 453.491C69.7007 468.561 70.488 482.31 70.488 494.765C70.488 503.538 69.6445 509.555 67.9294 512.872C66.4955 515.712 62.9528 519.002 57.2733 522.741C54.6022 524.513 48.8383 527.465 39.9535 531.626C32.3059 535.281 27.02 538.402 24.0958 540.989C20.4688 544.194 16.7856 550.464 13.0461 559.827C11.9777 562.835 11.4716 565.731 11.4716 568.515C11.4716 573.998 15.8577 577.709 24.6019 579.621Z" fill="url(#paint14_linear)"/>
<path d="M334.839 565.113C343.274 563.51 347.491 562.329 347.491 561.598C347.491 560.417 339.703 559.855 324.099 559.827C324.155 559.827 324.155 559.827 324.099 559.827C323.902 559.827 323.03 559.883 321.484 559.939C317.997 560.052 311.081 560.305 300.734 560.642C300.706 564.578 300.481 568.402 300.059 572.057C302.421 571.607 305.036 571.101 307.903 570.539C316.901 568.74 325.87 566.94 334.839 565.113Z" fill="url(#paint15_linear)"/>
<path d="M229.234 563.004C178.174 564.663 136.337 565.675 103.75 566.013C104.818 573.323 106.196 578.356 107.602 581.814C124.697 581.505 143.338 580.971 163.525 580.24C187.621 579.424 213.91 578.271 242.392 576.837C241.717 572.676 240.93 567.953 240.03 562.667C236.544 562.751 232.945 562.892 229.234 563.004Z" fill="url(#paint16_linear)"/>
<path d="M321.259 529.461C329.919 524.878 335.992 520.464 339.45 516.246C340.996 514.391 342.683 510.876 344.483 505.759C346.142 501.007 346.957 497.858 346.957 496.312C346.957 491.982 344.23 486.949 338.775 481.157C332.252 474.268 324.829 470.838 316.507 470.81C309.394 470.81 302.252 474.1 295.11 480.623C295.42 484.643 295.701 488.495 296.01 492.179C296.038 492.15 296.066 492.122 296.123 492.094C296.291 491.954 296.46 491.841 296.629 491.701C296.826 491.56 297.022 491.419 297.219 491.279C297.388 491.138 297.585 491.026 297.753 490.913L297.781 490.885C297.81 490.885 297.81 490.857 297.838 490.857L297.866 490.829C297.95 490.773 298.006 490.716 298.091 490.688C298.175 490.632 298.259 490.576 298.344 490.52C298.372 490.492 298.4 490.463 298.456 490.463C298.456 490.463 298.484 490.463 298.484 490.435C298.625 490.351 298.766 490.267 298.906 490.154C298.934 490.154 298.934 490.126 298.962 490.126C299.019 490.098 299.047 490.07 299.103 490.042C299.244 489.957 299.384 489.873 299.525 489.789C299.609 489.732 299.665 489.704 299.75 489.648C299.862 489.592 299.975 489.508 300.087 489.451C300.2 489.395 300.312 489.311 300.424 489.254C300.593 489.142 300.762 489.058 300.931 488.973C301.071 488.889 301.184 488.833 301.324 488.748C301.408 488.692 301.521 488.636 301.605 488.608C301.746 488.523 301.915 488.439 302.055 488.383C302.252 488.27 302.449 488.186 302.646 488.102C302.842 488.017 303.039 487.905 303.236 487.821C303.433 487.736 303.63 487.652 303.827 487.567C303.995 487.483 304.164 487.427 304.361 487.343H304.389C304.445 487.314 304.501 487.286 304.558 487.286C304.586 487.286 304.586 487.286 304.614 487.258C304.754 487.202 304.867 487.174 305.007 487.118C305.036 487.118 305.064 487.089 305.092 487.089C305.232 487.033 305.401 486.977 305.542 486.921C305.57 486.921 305.57 486.921 305.598 486.893C305.682 486.865 305.738 486.836 305.823 486.808C305.851 486.808 305.851 486.808 305.879 486.78C305.963 486.752 306.048 486.724 306.132 486.696C306.216 486.668 306.301 486.64 306.385 486.611C306.413 486.611 306.413 486.611 306.441 486.611C306.582 486.555 306.723 486.527 306.863 486.499C306.976 486.471 307.088 486.443 307.2 486.415C307.285 486.387 307.369 486.358 307.454 486.358C307.538 486.33 307.65 486.302 307.735 486.274C307.819 486.246 307.932 486.218 308.016 486.218C308.269 486.162 308.55 486.105 308.803 486.049C308.859 486.049 308.887 486.021 308.944 486.021C308.972 486.021 308.972 486.021 309 486.021C309.084 486.021 309.141 485.993 309.225 485.993L309.506 485.937C309.59 485.909 309.703 485.909 309.787 485.88C310.04 485.852 310.293 485.824 310.518 485.796C310.546 485.796 310.574 485.796 310.603 485.796C310.603 485.796 310.603 485.796 310.631 485.796C310.659 485.796 310.687 485.796 310.715 485.796H310.743C310.827 485.796 310.884 485.796 310.968 485.768C310.996 485.768 311.052 485.768 311.081 485.768C311.221 485.768 311.362 485.74 311.53 485.74C311.699 485.74 311.84 485.712 312.008 485.712H312.065C312.121 485.712 312.177 485.712 312.233 485.712C312.261 485.712 312.261 485.712 312.29 485.712C312.458 485.712 312.599 485.712 312.768 485.712C319.769 485.712 326.573 488.495 333.208 494.034C338.663 498.673 341.39 502.019 341.39 504.044C341.39 505.112 338.803 507.249 333.63 510.454C327.585 514.194 321.006 517.315 313.836 519.817C313.47 519.958 313.077 520.07 312.711 520.183C312.683 520.183 312.627 520.211 312.599 520.211C312.29 520.323 311.98 520.408 311.671 520.52C310.799 520.801 309.928 521.054 309.056 521.307C308.775 521.392 308.494 521.476 308.185 521.56C308.128 521.588 308.072 521.588 308.016 521.616C307.763 521.701 307.482 521.757 307.229 521.841C307.116 521.87 307.032 521.898 306.919 521.926C306.723 521.982 306.554 522.038 306.357 522.066C306.273 522.094 306.16 522.123 306.076 522.151C305.907 522.207 305.767 522.235 305.598 522.263C305.542 522.263 305.514 522.291 305.457 522.291C305.317 522.319 305.204 522.348 305.064 522.376C304.923 522.404 304.811 522.432 304.67 522.46C304.304 522.544 303.939 522.629 303.602 522.713H303.573C303.377 522.769 303.18 522.797 302.983 522.854C302.842 522.882 302.702 522.91 302.561 522.938C302.477 522.966 302.421 522.966 302.336 522.994C301.999 523.05 301.69 523.135 301.352 523.191C300.621 523.332 299.862 523.472 299.131 523.585C298.906 523.613 298.681 523.641 298.484 523.697C298.4 523.725 298.288 523.725 298.203 523.753C298.119 523.753 298.063 523.781 297.978 523.781C297.275 523.894 296.572 523.978 295.841 524.063C295.673 524.091 295.476 524.119 295.307 524.119C295.139 524.147 294.942 524.147 294.773 524.175C294.52 524.203 294.239 524.231 293.986 524.259C293.901 524.259 293.817 524.288 293.733 524.288C293.592 524.288 293.452 524.316 293.339 524.316C293.17 524.344 292.974 524.344 292.805 524.372C292.636 524.372 292.439 524.4 292.271 524.4H292.243C292.158 524.4 292.102 524.4 292.018 524.428C291.793 524.456 291.568 524.456 291.315 524.484C290.78 524.513 290.246 524.541 289.712 524.569C289.515 524.569 289.29 524.597 289.093 524.597C288.981 524.597 288.84 524.597 288.728 524.597C288.559 524.597 288.391 524.597 288.194 524.597C287.884 524.597 287.603 524.597 287.294 524.597C287.125 524.597 286.985 524.597 286.816 524.597C286.451 524.597 286.113 524.597 285.748 524.569C285.551 524.569 285.354 524.569 285.185 524.541C285.017 524.541 284.876 524.541 284.707 524.513C284.539 524.513 284.37 524.513 284.201 524.484H284.173C284.004 524.484 283.864 524.456 283.695 524.456C283.189 524.428 282.711 524.4 282.205 524.344C282.092 524.344 281.952 524.316 281.839 524.316C281.811 524.316 281.783 524.316 281.783 524.316C281.783 524.316 281.783 524.316 281.755 524.316C281.727 524.316 281.727 524.316 281.699 524.316C281.643 524.316 281.615 524.316 281.558 524.316H281.53C281.502 524.316 281.474 524.316 281.446 524.316C281.446 524.316 281.446 524.316 281.418 524.316C281.193 524.288 280.996 524.259 280.771 524.231C280.687 524.231 280.63 524.203 280.546 524.203H280.518C280.377 524.175 280.265 524.175 280.124 524.147C280.04 524.147 279.984 524.119 279.899 524.119C279.703 524.091 279.506 524.063 279.337 524.035C279.225 524.006 279.112 524.006 278.972 523.978C278.803 523.95 278.634 523.922 278.437 523.894C278.409 523.894 278.353 523.894 278.325 523.866C278.212 523.838 278.1 523.838 278.016 523.81C277.903 523.781 277.819 523.781 277.706 523.753C277.481 523.725 277.285 523.669 277.088 523.613C277.032 523.613 276.975 523.585 276.947 523.585C276.778 523.557 276.638 523.528 276.497 523.472C276.413 523.444 276.329 523.416 276.216 523.416C276.216 523.416 276.216 523.416 276.188 523.416C276.16 523.416 276.132 523.416 276.104 523.388C276.076 523.388 276.047 523.388 276.019 523.36C275.851 523.332 275.71 523.275 275.541 523.247C275.457 523.219 275.401 523.219 275.316 523.191H275.288C275.035 523.135 274.782 523.05 274.557 522.966C274.332 522.91 274.079 522.826 273.854 522.741C273.826 522.741 273.826 522.741 273.798 522.713C273.714 522.685 273.629 522.657 273.517 522.629C273.32 522.572 273.151 522.488 272.955 522.432C272.87 522.404 272.786 522.376 272.702 522.348C272.505 522.263 272.308 522.207 272.111 522.123C272.561 521.363 273.011 520.604 273.461 519.873C273.658 519.536 273.854 519.227 274.051 518.889C274.782 517.708 275.513 516.527 276.244 515.403C276.413 515.122 276.61 514.84 276.778 514.587C277.003 514.25 277.228 513.913 277.453 513.575C277.678 513.238 277.903 512.929 278.128 512.591C278.184 512.507 278.269 512.394 278.325 512.31C278.465 512.085 278.634 511.86 278.803 511.635C279.028 511.326 279.253 510.988 279.45 510.679C279.618 510.426 279.787 510.201 279.956 509.948C280.293 509.47 280.63 509.02 280.94 508.57C281.108 508.346 281.249 508.149 281.418 507.924C281.643 507.615 281.839 507.333 282.064 507.052C282.289 506.771 282.486 506.462 282.711 506.181C282.739 506.152 282.739 506.124 282.767 506.096C282.542 503.088 282.317 499.995 282.064 496.818C278.522 502.188 273.517 510.033 267.05 520.323C260.583 516.865 257.35 513.125 257.35 509.105C257.35 507.868 257.631 506.349 258.137 504.55C258.362 503.875 258.447 503.313 258.447 502.947C258.447 502.301 258.109 501.991 257.406 501.991C256.282 501.991 253.864 502.891 250.124 504.634C214.332 521.673 177.584 530.192 139.879 530.192C122.138 530.192 109.851 528.561 102.934 525.356C102.232 525.019 101.529 524.653 100.826 524.288C101.107 530.473 101.36 535.984 101.641 540.848C102.063 541.017 102.485 541.214 102.934 541.382C105.128 542.282 109.064 543.294 114.715 544.306C121.604 545.6 127.789 546.218 133.3 546.218C157.396 546.218 183.094 542.001 210.396 533.566C230.639 527.324 244.698 521.588 252.542 516.331C252.542 524.766 255.719 530.951 262.074 534.831C260.836 539.695 260.246 543.097 260.246 545.009C260.246 546.022 260.415 546.528 260.724 546.528C261.792 546.528 263.479 543.126 265.757 536.265C271.577 538.402 277.453 539.47 283.386 539.47C283.976 539.47 284.595 539.47 285.185 539.442C286.057 539.414 286.957 539.386 287.828 539.33C290.837 539.161 293.817 538.796 296.797 538.261C297.669 538.093 298.541 537.924 299.412 537.727C306.779 536.068 314.061 533.341 321.259 529.461Z" fill="url(#paint17_linear)"/>
<path d="M287.463 403.106C291.989 408.391 294.267 409.853 294.267 407.435C294.267 406.704 294.042 405.58 293.62 404.062C293.086 402.037 291.202 396.751 287.941 388.176C284.848 379.938 282.88 374.905 282.008 373.077C281.586 372.177 281.249 371.728 280.968 371.699C280.658 371.699 280.293 372.149 279.927 373.077C276.891 379.966 275.373 384.408 275.373 386.376C277.031 389.525 277.847 393.743 277.847 399.029C277.847 403.527 279.899 432.881 284.004 487.089C284.061 487.708 284.089 488.327 284.145 488.973C284.257 490.379 284.37 491.785 284.454 493.163C284.707 496.537 284.96 499.798 285.185 502.975C285.27 504.269 285.382 505.562 285.466 506.827C285.86 512.141 286.226 517.118 286.563 521.841C286.647 521.841 286.703 521.841 286.788 521.841H286.844C286.957 521.841 287.041 521.841 287.153 521.841H287.238C287.519 521.841 287.828 521.841 288.109 521.841C288.25 521.841 288.419 521.841 288.587 521.841H288.672C288.756 521.841 288.84 521.841 288.925 521.841H289.009C289.206 521.841 289.375 521.841 289.571 521.813C290.049 521.785 290.527 521.785 291.118 521.729H291.146C291.343 521.729 291.568 521.701 291.764 521.701H291.905L292.046 521.673H292.102C292.186 521.673 292.495 521.645 292.495 521.645L293.002 521.588C293.142 521.588 293.255 521.56 293.367 521.56H293.48C293.508 521.56 293.536 521.56 293.564 521.56H293.62H293.676C293.929 521.532 294.182 521.504 294.435 521.476H294.492C294.632 521.476 294.773 521.448 294.913 521.42L295.448 521.363C295.476 521.363 295.532 521.363 295.56 521.363C295.054 514.391 294.464 506.462 293.789 497.605C293.704 496.508 293.62 495.384 293.536 494.259C293.255 490.66 292.973 486.921 292.664 483.041C292.58 481.888 292.495 480.735 292.383 479.582C292.383 479.442 292.355 479.329 292.355 479.189C288.531 429.647 286.647 404.624 286.647 404.146C286.647 402.796 286.928 402.459 287.463 403.106Z" fill="url(#paint18_linear)"/>
<path d="M289.431 591.036C289.121 594.129 289.037 596.125 289.206 597.053C289.375 597.953 289.824 597.812 290.555 596.603C291.033 595.76 291.68 594.326 292.467 592.358C294.548 587.184 296.038 581.505 296.966 575.347C297.107 574.448 297.219 573.52 297.331 572.592C297.781 568.824 298.034 564.86 298.062 560.755C298.062 560.361 298.062 559.968 298.062 559.602C298.062 559.265 298.063 558.759 298.034 558.112C297.922 555.3 297.556 549.536 296.966 540.876C293.986 541.411 290.977 541.776 287.997 541.945C288.447 548.299 288.84 553.81 289.15 558.421C289.206 559.321 289.262 560.221 289.318 561.064C289.712 567.053 289.965 571.327 290.049 573.913C290.077 574.869 290.106 575.6 290.106 576.078V576.584C290.106 582.067 289.881 586.903 289.431 591.036Z" fill="url(#paint19_linear)"/>
<path d="M156.693 465.552C156.693 472.356 157.733 478.233 159.814 483.266C163.553 492.179 170.105 496.649 179.439 496.649C187.93 496.649 194.903 492.938 200.358 485.515C204.8 479.386 207.499 472.047 208.455 463.556C210.649 471.991 213.151 478.345 215.991 482.535C220.686 489.592 227.097 493.106 235.222 493.106C242.87 493.106 248.24 489.17 251.333 481.241C253.217 476.602 254.145 471.147 254.145 464.906C254.145 458.664 251.755 448.71 246.947 435.018C244.81 428.945 243.264 424.165 242.308 420.678C242.476 420.313 242.673 420.116 242.954 420.116C245.738 421.887 247.65 422.759 248.718 422.759C249.252 422.759 249.534 422.478 249.534 421.887C249.534 421.1 248.943 419.722 247.762 417.811C244.894 413.171 241.324 407.914 237.106 402.037C236.15 400.772 235.475 400.125 235.11 400.125C234.688 400.125 234.21 400.772 233.676 402.037C232.073 406.48 230.892 409.938 230.161 412.384C231.23 413.846 231.961 415.308 232.326 416.798C232.495 417.445 232.748 419.16 233.114 421.915C234.07 429.085 235.925 436.761 238.652 444.999C239.974 449.02 242.251 454.137 245.457 460.379C247.959 465.299 249.224 468.504 249.224 469.995C247.34 474.325 243.432 476.49 237.443 476.49C230.302 476.49 224.96 473.537 221.473 467.633C217.987 461.728 215.288 451.916 213.432 438.195C211.464 423.518 208.765 412.609 205.334 405.495C204.491 403.696 203.872 402.768 203.479 402.768C203.17 402.768 202.748 403.471 202.185 404.849C199.796 411.203 198.587 416.236 198.587 419.919C198.587 419.722 199.121 421.269 200.189 424.558C201.483 428.354 202.495 432.347 203.226 436.564C204.294 442.553 204.828 448.739 204.828 455.149C204.828 461.841 203.001 467.436 199.374 471.963C194.791 477.727 187.902 480.623 178.708 480.623C173.647 480.623 169.683 478.711 166.815 474.859C163.947 471.007 162.513 465.665 162.513 458.832C162.513 455.683 163.357 449.526 165.072 440.36C166.787 431.194 167.63 425.121 167.63 422.14C167.63 418.513 166.787 416.686 165.072 416.686C162.991 416.686 160.545 418.879 157.705 423.265C155.09 427.173 152.897 431.644 151.126 436.649C149.58 441.035 147.724 447.951 145.531 457.398C143.619 465.946 141.988 471.738 140.639 474.774C138.502 479.639 135.802 482.085 132.541 482.085C124.95 482.085 121.154 473.059 121.154 455.009C121.154 450.369 121.688 445.252 122.756 439.713C123.178 437.52 123.291 436.002 123.066 435.158C122.869 434.427 122.447 434.54 121.857 435.552C121.435 436.367 121.013 437.576 120.563 439.235C118.651 446.546 117.667 453.35 117.667 459.592C117.667 468.533 118.989 476.124 121.66 482.422C124.921 490.014 129.533 493.809 135.521 493.809C136.843 493.809 138.445 492.881 140.245 490.998C142.494 488.748 144.237 485.796 145.446 482.113C146.346 479.442 148.314 471.682 151.295 458.804C153.6 448.823 155.793 442.187 157.874 438.926C159.223 436.845 160.067 435.805 160.432 435.805C160.657 435.805 160.742 436.002 160.742 436.367C160.742 437.07 160.461 438.448 159.87 440.529C157.761 448.204 156.693 456.555 156.693 465.552Z" fill="url(#paint20_linear)"/>
<path d="M245.063 576.697C245.991 582.545 246.694 587.24 247.116 590.811C247.565 594.326 247.959 598.459 248.381 603.154C251.361 602.873 254.37 602.592 257.322 602.283C256.928 597.222 256.535 592.92 256.085 589.377C255.522 584.794 254.904 580.408 254.229 576.247C253.442 571.298 252.598 566.659 251.67 562.301C250.405 556.312 249.027 550.886 247.509 546.022C247.144 544.841 246.75 544.25 246.384 544.25C246.075 544.25 245.682 544.813 245.26 545.937C244.304 548.496 243.292 553.163 242.223 559.883C242.392 560.811 242.533 561.711 242.701 562.582C243.629 567.84 244.416 572.564 245.063 576.697Z" fill="url(#paint21_linear)"/>
<path d="M87.6672 698.835C87.1329 698.835 86.5425 699.959 85.8958 702.209C83.7871 708.422 82.7187 716.689 82.6906 727.007C84.0964 726.08 85.4741 725.124 86.8799 724.14C86.8518 722.846 86.8237 721.525 86.8237 720.147C86.8237 715.452 87.2735 709.744 88.1451 702.996C88.4825 700.212 88.3138 698.835 87.6672 698.835Z" fill="url(#paint22_linear)"/>
<path d="M103.047 766.652C107.011 766.652 110.751 764.037 114.265 758.807C116.515 755.405 119.158 749.866 122.194 742.219C125.231 734.571 127.339 729.847 128.52 728.02C135.156 717.87 141.454 712.809 147.415 712.781C149.327 712.781 151.267 714.271 153.178 717.279C155.315 720.906 157.452 724.505 159.589 728.02C163.019 733.278 167.265 736.623 172.41 738.114C174.772 738.76 178.652 739.07 184.107 739.07C191.304 739.07 198.137 736.258 204.575 730.663C208.962 726.867 211.97 723.268 213.685 719.782C214.444 725.911 216.919 730.438 221.136 733.306C224.341 735.555 228.137 736.736 232.495 736.708C238.315 736.708 243.348 734.768 247.565 730.747C253.076 725.574 255.832 717.785 255.832 707.41C256.788 715.424 258.025 721.047 259.515 724.252C262.242 730.016 265.954 734.683 270.649 738.198C273.854 740.616 278.522 743.09 284.876 745.705C287.491 746.773 291.258 747.28 296.46 747.28C306.61 747.28 316.76 744.412 326.91 738.704C332.73 735.442 340.181 730.044 349.263 722.453C351.681 717.926 353.452 713.849 354.633 710.278C355.336 708.732 355.251 707.973 354.408 707.945C353.874 708.001 353.03 708.535 351.849 709.547C346.086 714.58 339.816 719.022 333.011 722.931C324.689 727.682 317.941 730.072 312.768 730.072H312.739C302.702 730.072 294.436 725.602 287.969 716.604C282.683 709.238 280.04 701.759 280.04 694.167C283.47 691.131 288.868 688.544 296.263 686.435C303.658 684.327 310.884 683.286 317.941 683.258C322.749 683.258 328.26 684.383 334.445 686.632C336.048 687.223 337.229 687.532 337.96 687.504C338.55 687.504 338.831 687.363 338.831 687.026C338.831 686.548 338.072 685.676 336.498 684.383C327.247 676.651 316.76 672.771 305.007 672.771C296.151 672.771 288.728 675.386 282.739 680.615C275.738 686.773 272.252 695.545 272.252 706.989C272.252 713.23 274.529 719.669 279.112 726.333C276.582 724.618 274.135 722.593 271.774 720.26C267.219 715.789 264.014 705.611 262.074 689.725C261.005 680.419 260.049 663.886 259.178 640.1C258.981 633.998 258.756 628.347 258.503 623.117C255.579 623.455 252.683 623.764 249.759 624.073C250.124 630.343 250.433 637.204 250.743 644.682C251.642 666.163 252.092 684.355 252.092 699.257C252.092 704.177 251.699 707.748 250.883 709.997C249.702 713.315 247.425 715.93 243.995 717.87C240.564 719.782 236.741 720.709 232.467 720.709C224.201 720.709 220.068 717.364 220.068 710.756C220.068 709.069 220.349 707.185 220.939 705.161C221.164 704.486 221.248 703.868 221.248 703.333C221.248 702.265 220.911 701.731 220.208 701.731C219.843 701.731 217.706 703.896 213.798 708.226C209.524 712.921 207.134 715.48 206.6 715.902C200.583 720.709 193.076 723.099 184.05 723.099C179.13 723.099 175.166 722.34 172.101 720.85C169.064 719.36 166.084 716.576 163.216 712.499C161.192 709.182 159.167 705.864 157.115 702.546C154.669 698.919 151.998 697.092 149.102 697.092C145.25 697.092 141.004 699.397 136.365 703.98C131.726 708.591 127.789 714.074 124.584 720.485C120.957 728.301 117.386 736.089 113.844 743.906C110.329 750.429 106.477 753.69 102.316 753.69C96.4676 753.69 92.2782 750.119 89.7196 743.006C88.2857 744.13 86.908 745.171 85.5303 746.183C86.2613 748.432 87.1048 750.682 88.0889 752.875C92.222 762.069 97.1986 766.652 103.047 766.652Z" fill="url(#paint23_linear)"/>
<path d="M89.2417 740.053C89.8883 739.519 90.5631 739.013 91.2098 738.479C99.3074 731.9 106.674 724.899 113.281 717.476C118.623 711.403 121.294 703.165 121.294 692.818C121.294 689.837 121.041 686.885 120.479 684.017C119.186 677.522 116.683 671.534 112.944 666.079C108.67 659.781 104.087 656.632 99.1668 656.632C94.8931 656.632 90.7881 658.994 86.8236 663.689C82.5499 668.722 80.4131 674.542 80.4131 681.149C80.4131 689.697 86.7112 693.971 99.3074 693.971C109.542 693.971 115.053 696.107 115.812 700.381C114.856 703.052 110.751 707.691 103.469 714.327C98.8856 718.432 94.2464 722.171 89.5791 725.545C88.7356 726.164 87.8921 726.754 87.0205 727.345C85.5865 728.329 84.1807 729.285 82.7468 730.185C81.9033 730.747 81.0317 731.281 80.1882 731.787C79.6821 732.096 79.176 732.406 78.6699 732.715C68.323 738.901 59.4944 741.993 52.2404 741.993C43.1588 741.993 36.6077 739.182 32.5308 733.502C29.7472 729.678 28.3695 724.955 28.3695 719.416C28.3695 713.54 30.0284 704.852 33.318 693.324C33.5148 692.48 33.6835 691.749 33.796 691.159C33.9085 690.54 33.9647 690.034 33.9647 689.641C33.9647 689.219 33.8522 688.966 33.6554 688.853C33.2337 688.853 32.5027 690.062 31.4342 692.48C31.4342 692.508 31.4061 692.508 31.4061 692.537C26.7107 704.177 24.3489 715.592 24.3489 726.811C24.3489 735.358 26.4857 742.5 30.7594 748.292C35.5673 754.815 42.3434 758.048 51.1157 758.048C59.8881 758.048 70.3755 753.746 82.5218 745.171C83.281 744.636 84.0401 744.074 84.7993 743.512C86.177 742.5 87.5547 741.459 88.9605 740.335C89.0448 740.194 89.1573 740.138 89.2417 740.053ZM97.9015 679.153C91.7159 679.153 88.6231 677.663 88.6231 674.711C88.6231 672.18 90.9849 670.887 95.6522 670.887C97.5641 670.887 99.7572 671.899 102.231 673.923C104.256 675.723 105.802 677.635 106.871 679.659C105.577 679.322 102.597 679.153 97.9015 679.153Z" fill="url(#paint24_linear)"/>
<path d="M35.4549 686.829C35.8766 686.548 36.2702 686.238 36.692 685.929C44.9301 679.209 53.1401 672.461 61.3782 665.741C77.4046 653.033 91.1254 646.678 102.569 646.65C110.891 646.65 117.949 648.309 123.712 651.599C125.849 652.78 127.03 652.78 127.227 651.599L129.139 641.027C129.476 638.778 128.492 637.231 126.271 636.388C120.816 634.673 116.233 632.536 112.494 629.977C108.754 627.419 106.533 625.113 105.915 622.948C104.003 617.522 102.344 609.059 101.022 597.503C105.24 605.094 112.466 610.971 122.644 615.132C137.349 621.177 161.754 624.185 195.887 624.185C212.56 624.185 229.627 623.342 247.059 621.655C247.931 621.57 248.831 621.486 249.702 621.402C252.626 621.121 255.522 620.783 258.475 620.446C259.346 620.333 260.218 620.249 261.118 620.137C264.098 619.771 267.106 619.405 270.087 618.984C285.691 616.903 304.108 613.726 325.364 609.452C342.402 605.994 352.552 604.251 355.814 604.251C362.337 604.251 365.598 605.01 365.598 606.5C365.598 608.046 362.646 612.208 356.714 618.928C349.937 626.575 345.411 633.323 343.161 639.199C341.671 643.051 340.912 645.498 340.912 646.566C340.912 646.875 341.025 647.072 341.221 647.128C341.868 647.128 343.274 645.245 345.467 641.505C351.596 633.267 356.657 626.913 360.594 622.442C369.788 611.027 374.371 601.692 374.371 594.466C374.371 590.895 369.394 589.096 359.469 589.096C353.846 589.096 342.627 590.755 325.729 594.073C303.63 598.346 285.607 601.411 271.717 603.21C267.866 603.716 264.014 604.194 260.162 604.616C259.29 604.701 258.418 604.813 257.519 604.897C254.538 605.207 251.586 605.516 248.606 605.769C247.734 605.853 246.834 605.938 245.963 605.994C229.177 607.428 212.251 608.159 195.213 608.159C176.684 608.159 160.348 607.09 146.177 604.954C135.128 603.267 127.283 601.298 122.616 599.105C117.977 596.912 113.562 593.763 109.345 589.63C107.602 587.915 106.055 585.3 104.762 581.842C103.216 577.765 102.007 572.507 101.079 566.012C100.91 564.775 100.741 563.51 100.573 562.188C100.038 557.521 99.476 549.986 98.9137 539.555C98.6325 534.55 98.3795 528.87 98.0983 522.544C97.9296 518.805 97.7609 514.812 97.6203 510.595C95.9615 468.195 93.7965 434.68 91.1254 410.05C89.6353 396.33 87.3297 384.464 84.2369 374.483C83.8714 373.302 83.5059 372.712 83.1123 372.712C82.803 372.712 82.4375 373.274 81.9876 374.399C81.5096 375.748 80.638 380.387 79.3447 388.344C80.6942 392.506 82.1844 402.824 83.8433 419.273C86.0926 441.456 87.9202 470.585 89.2979 506.687C89.3822 509.667 89.4947 512.675 89.6072 515.656C89.804 522.066 90.0289 528.477 90.2257 534.887C90.5631 545.178 90.9005 555.469 91.2379 565.759C91.2379 565.9 91.2379 566.012 91.266 566.153C91.5191 571.776 91.8284 577.09 92.1376 582.095C93.431 601.917 95.2586 616.678 97.6203 626.378C98.1546 628.937 98.5201 630.624 98.7169 631.467C95.2023 631.467 89.8602 633.295 82.6905 636.922C73.0747 641.73 62.9809 648.562 52.4091 657.447C45.8861 663.098 39.3349 668.778 32.6994 674.429C27.3573 678.394 21.7059 680.362 15.7171 680.362C11.9776 680.362 9.10973 679.069 7.08535 676.426C5.06096 673.811 4.04877 670.409 4.04877 666.248C4.04877 660.68 5.82011 653.173 9.33466 643.726C12.8492 634.279 14.6206 628.74 14.6206 627.138C14.6206 626.716 14.5081 626.491 14.3113 626.491C13.7771 626.491 13.0742 627.306 12.2307 628.909C4.04877 644.682 0 657.56 0 667.485C0 674.654 2.02439 680.671 6.10127 685.535C10.15 690.4 14.8455 692.818 20.1876 692.818C23.0555 692.818 26.1202 692.03 29.3817 690.484C31.3217 689.556 33.3461 688.347 35.4549 686.829Z" fill="url(#paint25_linear)"/>
<path d="M200.105 749.866C196.056 747.083 193.751 745.705 193.216 745.677C192.851 745.677 192.485 746.014 192.176 746.633L188.099 755.068C187.031 753.999 184.781 752.312 181.379 750.035C177.977 747.729 176.009 746.576 175.531 746.576C175.166 746.576 174.828 746.914 174.491 747.532L169.374 758.048C169.177 758.526 169.177 758.863 169.374 759.004C173.647 761.675 177.78 764.543 181.801 767.579C182.279 767.973 182.729 767.776 183.179 767.017C184.613 764.655 186.103 761.787 187.593 758.385C192.035 761.281 196 764.009 199.514 766.624C199.992 766.933 200.442 766.764 200.892 766.061C204.463 760.297 206.262 756.502 206.262 754.674C206.206 754.28 204.182 752.65 200.105 749.866Z" fill="url(#paint26_linear)"/>
<path d="M5.73572 622.133C8.99723 622.133 11.359 618.197 12.793 610.324C12.9054 609.959 12.9054 609.677 12.793 609.509C12.793 609.34 12.7086 609.312 12.5399 609.424C12.3993 609.593 12.2306 609.818 12.0619 610.155C10.3187 613.557 8.74419 615.244 7.36648 615.244C4.97658 615.244 3.79569 613.023 3.76757 608.581C3.76757 605.319 5.08905 599.612 7.73199 591.458C8.32244 589.63 8.6036 588.534 8.6036 588.168C8.6036 588.112 8.57549 588.084 8.51925 588.084C8.32244 588.14 7.70388 589.124 6.69168 591.064C2.58668 598.881 0.53418 606.36 0.53418 613.473C0.53418 619.265 2.24928 622.133 5.73572 622.133Z" fill="url(#paint27_linear)"/>
<path d="M335.092 643.895C335.401 643.164 335.457 642.714 335.261 642.517C335.092 642.405 334.586 642.517 333.742 642.855C311.783 650.98 290.752 658.797 270.621 666.304C269.356 668.862 268.456 671.252 267.894 673.445C292.749 663.38 314.37 654.973 332.786 648.169C333.349 647.663 334.136 646.257 335.092 643.895Z" fill="url(#paint28_linear)"/>
<path d="M185.99 692.93C187.059 694.364 188.324 695.095 189.758 695.095C193.61 695.095 196.281 692.424 197.715 687.082C199.008 691.243 201.173 693.324 204.21 693.324C206.15 693.324 207.724 691.89 208.961 688.994C209.861 686.745 210.339 684.608 210.339 682.527C210.339 681.402 209.917 679.8 209.046 677.635C207.64 674.064 206.909 672.237 206.853 672.124C206.543 671.168 206.29 669.931 206.122 668.441C206.009 667.372 205.869 666.838 205.644 666.838C205.419 666.894 205.053 667.344 204.519 668.188C203.704 669.425 203.31 670.831 203.31 672.405C203.31 675.161 204.8 679.153 207.809 684.383C207.443 685.873 206.515 686.604 205.025 686.604C201.567 686.604 199.852 684.383 199.852 679.884C199.852 678.338 199.458 675.948 198.671 672.686C197.884 669.425 197.265 667.822 196.787 667.794C196.534 667.794 196.112 668.385 195.578 669.509C195.044 670.662 194.763 671.506 194.763 672.012C194.763 672.602 195.072 674.12 195.69 676.566C196.309 679.013 196.618 680.756 196.59 681.768C196.59 683.539 195.972 685.058 194.706 686.379C193.441 687.672 192.092 688.347 190.63 688.347C189.505 688.347 188.577 687.532 187.818 685.873C187.171 684.439 186.862 682.949 186.862 681.402C186.862 680.671 186.974 679.772 187.199 678.76C187.424 677.747 187.537 676.482 187.537 674.992C187.537 672.124 187.171 670.69 186.412 670.69C185.822 670.69 184.978 671.309 183.853 672.518C182.644 673.923 182.026 675.329 182.026 676.763C182.026 677.663 182.391 678.253 183.122 678.45C183.853 678.675 184.219 679.041 184.191 679.575V686.154C184.163 688.966 184.781 691.215 185.99 692.93Z" fill="url(#paint29_linear)"/>
<path d="M224.735 638.384C225.044 637.653 225.1 637.203 224.904 637.007C224.735 636.894 224.229 637.007 223.385 637.344C201.426 645.47 180.395 653.286 160.264 660.793C158.999 663.352 158.099 665.742 157.536 667.935C182.391 657.869 204.013 649.462 222.429 642.658C223.02 642.152 223.779 640.746 224.735 638.384Z" fill="url(#paint30_linear)"/>
<path d="M145.446 643.108C145.446 643.052 145.418 643.023 145.362 643.023C145.165 643.08 144.547 644.064 143.535 646.004C139.43 653.82 137.377 661.299 137.377 668.413C137.377 674.205 139.12 677.101 142.579 677.101C145.84 677.101 148.202 673.164 149.636 665.292C149.748 664.926 149.748 664.645 149.636 664.476C149.636 664.308 149.551 664.279 149.383 664.392C149.242 664.561 149.074 664.786 148.905 665.123C147.162 668.525 145.587 670.212 144.209 670.212C141.819 670.212 140.639 667.991 140.61 663.548C140.61 660.287 141.932 654.579 144.575 646.426C145.137 644.57 145.446 643.473 145.446 643.108Z" fill="url(#paint31_linear)"/>
<path d="M212.785 668.497C214.247 669.819 215.456 670.493 216.328 670.493C217.143 670.493 217.621 670.325 217.79 669.959C217.959 669.594 218.324 669.425 218.915 669.425C219.786 669.425 221.22 671.983 223.245 677.073C225.269 682.162 226.281 685.592 226.281 687.335C226.281 688.46 226.506 689.022 226.928 689.022C227.434 689.022 227.996 688.403 228.699 687.194C229.655 685.395 230.555 682.302 231.342 677.944C233.17 667.878 235.138 662.846 237.275 662.846C238.231 662.846 239.187 663.436 240.086 664.561C240.986 665.714 241.577 666.276 241.858 666.276C242.504 666.276 243.067 665.545 243.545 664.026C243.91 662.902 244.107 662.002 244.107 661.299C244.107 660.399 243.573 659.219 242.504 657.756C241.267 656.098 240.058 655.254 238.821 655.254C236.431 655.254 234.21 657.7 232.158 662.536C230.274 669.312 229.121 674.43 228.643 677.832C228.446 678.422 228.306 678.76 228.249 678.872C228.193 679.041 228.109 679.041 227.996 678.872C227.996 678.76 227.94 678.422 227.828 677.832C226.872 672.124 225.213 667.485 222.823 663.942C220.461 660.399 217.762 658.628 214.782 658.6C214.472 658.6 213.685 659.64 212.476 661.693C211.239 663.745 210.649 664.954 210.62 665.32C210.592 666.079 211.323 667.147 212.785 668.497Z" fill="url(#paint32_linear)"/>
<path d="M59.4101 683.061C59.4101 683.005 59.382 682.977 59.3258 682.977C59.129 683.033 58.5104 684.017 57.4982 685.957C53.3932 693.774 51.3407 701.253 51.3407 708.366C51.3407 714.158 53.0839 717.054 56.5422 717.054C59.8038 717.054 62.1655 713.118 63.5995 705.245C63.7119 704.88 63.7119 704.599 63.5995 704.43C63.5995 704.261 63.5151 704.233 63.3464 704.346C63.2058 704.514 63.0371 704.739 62.8684 705.077C61.1252 708.479 59.5507 710.166 58.173 710.166C55.7831 710.166 54.6022 707.944 54.5741 703.502C54.5741 700.241 55.8956 694.533 58.5385 686.379C59.129 684.552 59.4101 683.427 59.4101 683.061Z" fill="url(#paint33_linear)"/>
<path d="M326.488 618.168C326.488 617.691 326.348 617.466 326.095 617.437C325.56 617.437 324.942 617.972 324.239 619.04C323.283 620.53 322.327 622.049 321.343 623.539C320.106 625.029 318.531 625.788 316.535 625.788C315.467 625.788 314.201 625.535 312.683 625.001C311.193 624.467 309.984 624.214 309.084 624.214C305.232 624.214 301.437 625.619 297.641 628.375C294.548 630.68 291.624 633.436 288.897 636.641C284.96 641.28 281.867 644.682 279.674 646.819C275.344 650.137 272.139 652.358 270.059 653.483C267.865 654.832 266.769 655.563 266.769 655.732C266.769 655.788 266.825 655.816 266.938 655.816C267.359 655.816 269.046 655.395 271.97 654.523C274.388 653.82 276.778 652.583 279.168 650.755C283.189 646.847 287.153 642.939 291.118 639.031C296.572 633.998 301.943 631.496 307.228 631.496C307.931 631.496 308.972 631.749 310.406 632.227C311.811 632.733 312.992 632.958 313.892 632.958C316.985 632.958 320.162 631.299 323.339 627.925C327.191 629.809 330.031 630.118 331.83 628.881C332.533 628.403 333.264 627.081 334.052 624.888C334.839 622.723 335.204 620.783 335.204 619.124C335.204 617.156 334.726 615.694 333.77 614.738C333.574 614.541 332.927 615.329 331.859 617.128C331.212 618.14 330.987 618.928 331.127 619.434C331.662 621.346 331.915 622.358 331.859 622.47C331.802 622.695 331.577 622.808 331.127 622.78C327.079 622.78 325.195 622.386 325.532 621.571C326.151 620.024 326.488 618.871 326.488 618.168Z" fill="url(#paint34_linear)"/>
<path d="M351.146 674.036C351.146 674.092 351.175 674.12 351.231 674.12C351.512 674.12 352.355 673.614 353.789 672.602C357.416 670.043 360.369 666.951 362.674 663.324C364.924 659.865 366.02 656.773 366.02 654.045C366.02 650.362 364.558 648.534 361.634 648.534C358.119 648.534 355.898 650.784 354.914 655.226C354.774 656.126 354.661 656.688 354.605 656.913C354.773 656.969 354.914 657.054 354.998 657.138C355.167 657.082 355.561 656.857 356.179 656.463C357.023 655.901 357.979 655.62 359.019 655.62C360.931 655.62 361.887 656.66 361.887 658.741C361.887 660.934 358.935 665.264 352.974 671.731C351.765 673.052 351.146 673.839 351.146 674.036Z" fill="url(#paint35_linear)"/>
<path d="M60.3378 623.904C54.6864 626.885 51.2562 628.853 50.0191 629.809C48.9507 630.652 48.3321 631.158 48.2196 631.299C48.2196 631.411 49.0912 631.271 50.8063 630.821C60.5065 628.262 66.2142 626.379 67.9293 625.17C70.6003 623.258 73.4401 620.221 76.3923 616.088C79.0353 612.405 80.3567 610.043 80.3567 608.974C80.3567 606.416 74.8178 605.123 63.7118 605.123C60.2254 605.123 58.0042 605.207 57.0482 605.376C54.4053 605.826 52.6058 606.894 51.5936 608.581L48.1634 614.345C47.7417 615.104 47.5167 615.61 47.5167 615.863C47.5167 616.172 48.4164 616.313 50.1597 616.229C53.8148 616.06 55.6424 615.976 55.6986 615.976C65.3144 615.976 70.1224 616.622 70.1224 617.916C70.1224 618.084 70.038 618.225 69.8693 618.394C68.8852 619.153 65.7362 621.008 60.3378 623.904Z" fill="url(#paint36_linear)"/>
<path d="M115.306 403.303C115.306 403.246 115.277 403.218 115.221 403.218C115.024 403.274 114.406 404.259 113.394 406.199C109.289 414.015 107.236 421.494 107.236 428.607C107.236 434.399 108.979 437.295 112.438 437.295C115.699 437.295 118.061 433.359 119.495 425.487C119.607 425.121 119.607 424.84 119.495 424.671C119.495 424.502 119.411 424.474 119.242 424.587C119.101 424.755 118.933 424.98 118.764 425.318C117.021 428.72 115.446 430.407 114.068 430.407C111.678 430.407 110.498 428.186 110.469 423.743C110.469 420.482 111.791 414.774 114.434 406.62C115.024 404.793 115.306 403.696 115.306 403.303Z" fill="url(#paint37_linear)"/>
<path d="M189.139 370.181C189.139 367.313 188.774 365.879 188.015 365.879C187.424 365.879 186.581 366.498 185.456 367.707C184.247 369.113 183.629 370.519 183.629 371.953C183.629 372.852 183.994 373.443 184.725 373.64C185.456 373.864 185.822 374.23 185.794 374.764V381.343C185.794 384.127 186.412 386.376 187.649 388.063C188.718 389.497 189.983 390.228 191.417 390.228C195.269 390.228 197.94 387.557 199.374 382.215C200.667 386.376 202.832 388.457 205.869 388.457C207.809 388.457 209.383 387.023 210.62 384.127C211.52 381.878 211.998 379.741 211.998 377.66C211.998 376.535 211.576 374.933 210.705 372.768C209.299 369.197 208.568 367.37 208.512 367.257C208.202 366.301 207.949 365.064 207.781 363.574C207.668 362.505 207.528 361.971 207.303 361.971C207.078 362.027 206.712 362.477 206.178 363.321C205.363 364.558 204.969 365.964 204.969 367.538C204.969 370.294 206.459 374.286 209.468 379.516C209.102 381.006 208.174 381.737 206.684 381.737C203.226 381.737 201.511 379.516 201.511 375.017C201.511 373.471 201.117 371.081 200.33 367.819C199.543 364.558 198.924 362.955 198.446 362.927C198.193 362.927 197.771 363.518 197.237 364.642C196.703 365.795 196.422 366.639 196.422 367.145C196.422 367.735 196.731 369.253 197.35 371.699C197.968 374.146 198.277 375.889 198.249 376.901C198.249 378.672 197.631 380.191 196.365 381.512C195.1 382.805 193.751 383.48 192.289 383.48C191.164 383.48 190.236 382.665 189.477 381.006C188.83 379.572 188.521 378.082 188.521 376.535C188.521 375.804 188.633 374.905 188.858 373.893C189.027 372.937 189.139 371.699 189.139 370.181Z" fill="url(#paint38_linear)"/>
<path d="M119.13 384.605C168.277 365.149 213.994 347.491 256.282 331.662C256.872 331.128 257.659 329.722 258.615 327.416C258.925 326.685 258.981 326.207 258.784 326.039C258.615 325.926 258.109 326.039 257.266 326.376C211.239 343.724 166.084 360.678 121.857 377.323C120.592 379.938 119.692 382.384 119.13 384.605Z" fill="url(#paint39_linear)"/>
<path d="M189.955 346.339C190.32 346.339 190.742 345.776 191.22 344.652C192.26 342.093 192.766 339.338 192.766 336.442C192.766 327.163 189.139 319.825 181.914 314.427C181.492 314.117 181.182 314.117 180.986 314.427L178.877 318.138C178.568 318.756 178.624 319.263 179.074 319.684C186.412 326.179 190.095 332.702 190.095 339.253C190.095 341.278 189.983 342.908 189.73 344.146C189.421 345.608 189.477 346.339 189.955 346.339Z" fill="url(#paint40_linear)"/>
<path d="M125.681 419.638C124.134 420.65 123.375 421.297 123.347 421.55C123.347 421.662 123.459 421.719 123.656 421.719C124.134 421.719 125.062 421.466 126.383 420.988C134.931 417.839 139.654 416.039 140.498 415.617C144.575 413.79 149.045 411.091 153.881 407.52C158.015 404.455 161.445 401.025 164.228 397.173C169.739 397.763 172.691 398.045 173.057 398.045C174.069 398.045 175.109 396.92 176.178 394.699C177.246 392.449 177.78 390.481 177.78 388.766C177.78 388.232 177.696 387.81 177.527 387.473C175.447 382.524 171.257 378.307 164.931 374.82C163.104 373.864 161.501 373.386 160.123 373.386C158.689 373.386 157.424 373.921 156.356 374.989C154.978 376.395 154.753 378.729 155.709 382.046C154.275 384.521 153.544 387.135 153.544 389.891C153.544 393.265 156.018 395.514 160.967 396.639C157.087 400.378 151.548 404.371 144.378 408.588C138.192 412.272 131.951 415.955 125.681 419.638ZM167.04 383.958C170.358 385.364 172.719 387.557 174.097 390.622C174.463 391.437 174.547 391.943 174.35 392.14C174.238 392.253 174.069 392.281 173.788 392.225C169.092 391.578 166.534 391.212 166.084 391.1C166.703 389.272 167.04 386.882 167.04 383.958ZM156.299 387.388C156.299 386.742 156.918 385.814 158.155 384.577C159.392 383.34 160.348 382.749 161.023 382.721C162.26 382.721 163.104 383.677 163.582 385.617C164.031 387.388 164.031 389.047 163.582 390.594C158.717 389.975 156.299 388.907 156.299 387.388Z" fill="url(#paint41_linear)"/>
<path d="M96.9175 376.535C97.3392 376.535 98.239 376.282 99.5604 375.804C108.108 372.655 112.803 370.884 113.675 370.434C117.724 368.635 122.194 365.935 127.058 362.337C131.332 359.188 134.847 355.701 137.63 351.849C140.048 353.311 141.566 354.52 142.185 355.532C144.434 352.327 145.559 350.078 145.559 348.728C144.912 347.716 143.338 346.507 140.835 345.045C142.016 341.53 142.607 338.353 142.607 335.513C142.607 332.364 141.735 330.481 139.964 329.834C137.883 329.103 135.268 330.143 132.119 332.955C128.97 335.795 127.396 338.916 127.396 342.318C127.396 345.157 129.87 347.857 134.847 350.415C131.107 354.323 125.456 358.541 117.864 363.152C111.51 366.948 105.184 370.715 98.8856 374.427C97.3955 375.383 96.6644 376.029 96.6363 376.339C96.6082 376.507 96.6926 376.535 96.9175 376.535ZM131.922 338.859C131.922 338.325 132.429 337.791 133.441 337.229C134.453 336.666 135.268 336.385 135.831 336.385C137.068 336.385 137.827 337.257 138.164 338.944C138.445 340.49 138.333 342.036 137.855 343.583C133.919 341.643 131.922 340.068 131.922 338.859Z" fill="url(#paint42_linear)"/>
<path d="M262.917 356.179C260.527 356.179 258.306 358.625 256.253 363.461C254.37 370.237 253.217 375.355 252.739 378.757C252.542 379.347 252.401 379.685 252.345 379.797C252.289 379.966 252.205 379.966 252.092 379.797C252.092 379.685 252.036 379.347 251.923 378.757C250.968 373.049 249.309 368.41 246.919 364.867C244.557 361.324 241.858 359.553 238.877 359.525C238.568 359.525 237.781 360.565 236.572 362.618C235.335 364.67 234.744 365.879 234.716 366.245C234.716 367.06 235.447 368.129 236.937 369.45C238.399 370.772 239.608 371.446 240.48 371.446C241.295 371.446 241.773 371.278 241.942 370.912C242.111 370.547 242.476 370.378 243.067 370.378C243.938 370.378 245.372 372.937 247.397 378.026C249.421 383.115 250.433 386.545 250.433 388.288C250.433 389.413 250.658 389.975 251.08 389.975C251.586 389.975 252.148 389.357 252.851 388.148C253.807 386.348 254.707 383.255 255.494 378.897C257.322 368.832 259.29 363.799 261.427 363.799C262.383 363.799 263.339 364.389 264.238 365.514C265.138 366.667 265.729 367.229 266.01 367.229C266.656 367.229 267.219 366.498 267.697 364.98C268.062 363.855 268.259 362.955 268.259 362.252C268.259 361.353 267.725 360.172 266.656 358.71C265.363 356.995 264.126 356.179 262.917 356.179Z" fill="url(#paint43_linear)"/>
<path d="M310.49 421.831C310.49 411.147 307.004 402.937 300.059 397.229C299.581 396.864 299.243 396.864 299.019 397.229L296.601 401.475C296.235 402.122 296.319 402.712 296.854 403.246C303.798 410.191 307.257 417.445 307.257 424.952C307.257 428.917 306.498 432.881 304.951 436.874C302.983 441.991 301.718 446.377 301.127 450.004C300.93 451.354 300.818 452.647 300.818 453.94C300.818 460.351 302.477 463.556 305.795 463.556C309.056 463.556 311.418 459.62 312.852 451.775C312.908 451.41 312.908 451.129 312.852 450.988C312.852 450.819 312.768 450.791 312.599 450.904C312.43 451.072 312.29 451.297 312.121 451.635C310.349 455.009 308.775 456.668 307.397 456.668C305.007 456.668 303.798 454.446 303.798 450.004C303.798 447.811 304.923 443.847 307.172 438.111C309.365 432.375 310.49 426.949 310.49 421.831Z" fill="url(#paint44_linear)"/>
<path d="M31.7715 512.001C32.84 513.435 34.1052 514.166 35.5392 514.166C39.3911 514.166 42.0622 511.495 43.4961 506.153C44.7895 510.314 46.9544 512.394 49.991 512.394C51.9311 512.394 53.5056 510.96 54.7427 508.064C55.6424 505.815 56.1204 503.678 56.1204 501.598C56.1204 500.473 55.6987 498.87 54.827 496.705C53.4212 493.135 52.6902 491.307 52.634 491.195C52.3247 490.239 52.0716 489.002 51.9029 487.511C51.7905 486.443 51.6499 485.909 51.425 485.909C51.2 485.965 50.8345 486.415 50.3003 487.258C49.4849 488.495 49.0913 489.901 49.0913 491.476C49.0913 494.231 50.5815 498.224 53.5899 503.453C53.2244 504.944 52.2966 505.675 50.8064 505.675C47.3481 505.675 45.633 503.453 45.633 498.955C45.633 497.408 45.2393 495.018 44.4521 491.757C43.6648 488.495 43.0462 486.893 42.5683 486.865C42.3152 486.865 41.8935 487.455 41.3593 488.58C40.8251 489.733 40.5439 490.576 40.5439 491.082C40.5439 491.673 40.8532 493.191 41.4717 495.637C42.0903 498.083 42.3996 499.826 42.3715 500.839C42.3715 502.61 41.7529 504.128 40.4877 505.45C39.2224 506.743 37.8728 507.418 36.4108 507.418C35.2861 507.418 34.3583 506.602 33.5991 504.944C32.9524 503.51 32.6432 502.019 32.6432 500.473C32.6432 499.742 32.7556 498.842 32.9806 497.83C33.2055 496.818 33.318 495.553 33.318 494.062C33.318 491.195 32.9524 489.761 32.1933 489.761C31.6029 489.761 30.7594 490.379 29.6347 491.588C28.4257 492.994 27.8071 494.4 27.8071 495.834C27.8071 496.734 28.1726 497.324 28.9037 497.521C29.6347 497.746 30.0002 498.111 29.9721 498.645V505.225C29.944 508.064 30.5625 510.286 31.7715 512.001Z" fill="url(#paint45_linear)"/>
<path d="M63.4027 464.737C63.7119 464.006 63.7682 463.556 63.5714 463.387C63.4027 463.275 62.8966 463.387 62.0531 463.697C45.38 469.77 29.6348 475.506 14.7893 480.904C13.5803 483.519 12.6525 485.909 12.062 488.102C30.7595 480.37 47.0951 474.015 61.0971 468.983C61.6594 468.505 62.4186 467.071 63.4027 464.737Z" fill="url(#paint46_linear)"/>
<path d="M39.8972 462.347C39.8972 464.371 39.7566 466.002 39.5036 467.267C39.1662 468.729 39.2505 469.46 39.7285 469.46C40.1221 469.46 40.5439 468.898 40.9937 467.773C42.034 465.187 42.5683 462.431 42.5683 459.535C42.5683 450.172 38.9131 442.806 31.631 437.379C31.2092 437.07 30.8999 437.07 30.7031 437.379L28.5944 441.119C28.257 441.737 28.3413 442.244 28.7912 442.665C36.1858 449.216 39.8972 455.768 39.8972 462.347Z" fill="url(#paint47_linear)"/>
<path d="M353.593 559.152C354.886 560.333 355.926 560.923 356.714 560.923C357.416 560.923 357.838 560.783 357.979 560.445C358.119 560.108 358.457 559.939 358.963 559.939C359.722 559.939 360.987 562.189 362.759 566.659C364.558 571.13 365.43 574.138 365.43 575.685C365.43 576.669 365.626 577.175 365.992 577.175C366.414 577.175 366.948 576.64 367.538 575.544C368.382 573.941 369.169 571.214 369.872 567.362C371.475 558.477 373.218 554.035 375.102 554.035C375.945 554.035 376.761 554.541 377.576 555.553C378.363 556.565 378.897 557.071 379.122 557.071C379.685 557.071 380.191 556.425 380.613 555.103C380.95 554.119 381.119 553.332 381.119 552.713C381.119 551.926 380.641 550.886 379.713 549.621C378.616 548.159 377.548 547.456 376.479 547.427C374.371 547.427 372.403 549.564 370.631 553.838C368.972 559.799 367.96 564.269 367.51 567.278C367.313 567.784 367.201 568.093 367.173 568.206C367.117 568.346 367.06 568.346 366.976 568.206C366.976 568.121 366.92 567.812 366.835 567.278C365.992 562.245 364.53 558.196 362.421 555.075C360.341 551.954 357.979 550.38 355.336 550.38C355.055 550.38 354.38 551.308 353.283 553.107C352.215 554.935 351.653 556.003 351.653 556.312C351.653 557.043 352.299 557.971 353.593 559.152Z" fill="url(#paint48_linear)"/>
<path d="M38.5476 596.069C39.2787 596.069 39.9816 596.519 40.6564 597.39C41.3312 598.29 41.781 598.712 41.9779 598.712C42.4558 598.712 42.8776 598.15 43.2431 597.025C43.5243 596.181 43.6648 595.507 43.6648 594.972C43.6648 594.298 43.2712 593.398 42.4558 592.301C41.528 591.064 40.6283 590.446 39.7004 590.417C37.901 590.417 36.2421 592.245 34.7238 595.9C33.318 600.989 32.4464 604.813 32.0809 607.372C31.9403 607.822 31.8278 608.075 31.7716 608.159C31.7435 608.3 31.6872 608.3 31.6029 608.159C31.6029 608.075 31.5748 607.822 31.4904 607.372C30.7875 603.098 29.5223 599.64 27.7509 596.969C25.9796 594.298 23.9552 592.976 21.7059 592.976C21.481 592.976 20.8905 593.763 19.9627 595.282C19.0348 596.828 18.585 597.756 18.585 598.009C18.585 598.627 19.1473 599.415 20.2438 600.427C21.3404 601.439 22.2401 601.917 22.9149 601.917C23.5053 601.917 23.8709 601.777 24.0114 601.467C24.1239 601.158 24.4051 601.017 24.8549 601.017C25.4735 601.017 26.4857 602.789 27.9196 606.303C29.2973 609.565 30.2252 612.348 30.7313 614.654C28.8475 615.469 27.6947 617.972 27.2448 622.161C27.1605 623.061 27.2167 623.482 27.4135 623.482C27.526 623.482 28.004 622.976 28.7912 621.936C29.6066 620.896 30.2252 620.362 30.6469 620.362C31.5748 620.362 32.5307 620.868 33.5429 621.852C31.0968 622.583 29.4379 623.314 28.5663 624.017C26.7387 625.535 25.8109 627.925 25.8109 631.158C25.8109 632.114 26.5138 635.882 27.8634 642.405C29.2411 648.956 29.9159 654.551 29.9159 659.19C29.9159 662.002 30.0284 663.38 30.2533 663.38C30.3658 663.352 30.5345 662.902 30.7032 662.058C31.2093 659.612 31.4623 657.222 31.4623 654.86C31.4623 646.819 30.1127 638.665 27.3854 630.399C28.3414 629.303 30.0565 628.375 32.5026 627.559C34.4708 627.053 36.4389 626.491 38.3789 625.929C38.632 625.844 39.0537 625.141 39.6442 623.792C40.2346 622.442 40.5158 621.627 40.4877 621.289C40.2909 620.108 39.1662 618.675 37.0856 616.988C35.0331 615.329 33.3461 614.429 32.0809 614.316C32.9244 612.517 33.5992 610.183 34.1334 607.287C35.4548 599.865 36.945 596.069 38.5476 596.069Z" fill="url(#paint49_linear)"/>
<path d="M351.793 534.55C356.826 534.55 361.269 533.088 365.177 530.108C369.085 527.156 371.025 523.697 371.025 519.733C371.025 516.499 369.422 514.841 366.217 514.841C364.136 514.841 361.493 516.275 358.288 519.086C355.842 521.448 353.396 523.81 351.006 526.2C346.985 526.2 345.102 526.172 345.383 526.115C342.402 526.565 339.113 528.083 335.542 530.67C332.449 532.976 329.497 535.731 326.713 538.993C322.749 543.632 319.712 547.006 317.576 549.086C313.246 552.404 310.04 554.625 307.96 555.722C306.104 556.875 305.007 557.578 304.754 557.859C304.698 557.915 304.67 557.943 304.67 557.971C304.67 558.027 304.726 558.056 304.839 558.056C305.007 558.056 305.429 557.971 306.076 557.831C306.947 557.634 308.213 557.268 309.9 556.79C312.318 556.087 314.708 554.85 317.098 553.023C321.118 549.086 325.083 545.094 329.047 541.101C334.502 535.984 339.872 533.426 345.158 533.426C345.861 533.426 346.901 533.622 348.335 533.988C349.741 534.353 350.894 534.55 351.793 534.55ZM363.911 519.873C366.386 519.873 367.876 520.576 368.382 521.954C367.707 523.022 365.936 524.119 363.096 525.244C360.059 526.537 357.248 527.156 354.689 527.156C354.043 527.156 353.452 527.099 352.918 526.987C357.782 522.263 361.437 519.873 363.911 519.873Z" fill="url(#paint50_linear)"/>
<path d="M152.841 489.339C152.841 489.283 152.813 489.283 152.785 489.254C152.588 489.311 152.054 490.182 151.154 491.869C147.555 498.758 145.728 505.309 145.728 511.551C145.728 516.64 147.246 519.17 150.311 519.17C153.178 519.17 155.259 515.712 156.524 508.795C156.609 508.458 156.609 508.233 156.524 508.092C156.524 507.952 156.468 507.924 156.327 508.008C156.187 508.149 156.046 508.345 155.906 508.655C154.359 511.607 152.982 513.069 151.773 513.069C149.664 513.069 148.624 511.129 148.624 507.221C148.624 504.353 149.804 499.348 152.11 492.207C152.588 490.632 152.841 489.648 152.841 489.339Z" fill="url(#paint51_linear)"/>
<path d="M117.864 486.021C117.864 485.543 117.611 485.318 117.077 485.318C116.233 485.318 115.474 485.937 114.828 487.146C111.482 493.416 109.204 500.164 107.995 507.446C107.827 508.43 107.714 509.358 107.714 510.201C107.714 513.969 109.261 515.825 112.353 515.825C115.559 515.825 118.23 514.363 120.395 511.467C121.154 510.483 121.688 508.036 122.025 504.128C122.363 500.529 120.057 496.902 115.109 493.275C115.896 490.942 116.796 488.692 117.724 486.584C117.836 486.415 117.864 486.218 117.864 486.021ZM119.917 505.843C119.298 506.687 118.202 507.53 116.599 508.374C114.996 509.217 113.59 509.639 112.353 509.639C111.004 509.639 110.329 508.908 110.301 507.474C110.301 505.169 111.06 502.582 112.55 499.742C117.471 502.441 119.917 504.466 119.917 505.843Z" fill="url(#paint52_linear)"/>
<path d="M266.038 404.287C266.038 404.23 266.01 404.23 265.982 404.202C265.785 404.258 265.251 405.13 264.351 406.817C260.752 413.706 258.924 420.257 258.924 426.499C258.924 431.588 260.443 434.118 263.507 434.118C266.375 434.118 268.456 430.66 269.721 423.743C269.805 423.406 269.805 423.181 269.721 423.04C269.721 422.9 269.665 422.871 269.524 422.956C269.384 423.096 269.243 423.293 269.103 423.603C267.556 426.555 266.178 428.017 264.969 428.017C262.861 428.017 261.82 426.077 261.82 422.169C261.82 419.301 263.001 414.296 265.307 407.154C265.785 405.58 266.038 404.624 266.038 404.287Z" fill="url(#paint53_linear)"/>
</g>
<defs>
<linearGradient id="paint0_linear" x1="893.85" y1="851.929" x2="893.85" y2="977.159" gradientUnits="userSpaceOnUse">
<stop stop-color="#FDC78A"/>
<stop offset="0.697917" stop-color="#63ABCC"/>
</linearGradient>
<linearGradient id="paint1_linear" x1="852.097" y1="154.05" x2="852.097" y2="330.818" gradientUnits="userSpaceOnUse">
<stop stop-color="#FDC78A"/>
<stop offset="0.697917" stop-color="#63ABCC"/>
</linearGradient>
<linearGradient id="paint2_linear" x1="244.107" y1="82.9998" x2="244.107" y2="300.621" gradientUnits="userSpaceOnUse">
<stop stop-color="#FDC78A"/>
<stop offset="0.697917" stop-color="#63ABCC"/>
</linearGradient>
<linearGradient id="paint3_linear" x1="41.8198" y1="776.633" x2="41.8198" y2="891.236" gradientUnits="userSpaceOnUse">
<stop stop-color="#FDC78A"/>
<stop offset="0.697917" stop-color="#63ABCC"/>
</linearGradient>
<linearGradient id="paint4_linear" x1="561.665" y1="500.417" x2="561.665" y2="615.019" gradientUnits="userSpaceOnUse">
<stop stop-color="#FDC78A"/>
<stop offset="0.697917" stop-color="#63ABCC"/>
</linearGradient>
<linearGradient id="paint5_linear" x1="1033.67" y1="544.672" x2="1033.67" y2="658.6" gradientUnits="userSpaceOnUse">
<stop stop-color="#FDC78A"/>
<stop offset="0.697917" stop-color="#63ABCC"/>
</linearGradient>
<linearGradient id="paint6_linear" x1="469.89" y1="904.057" x2="469.89" y2="1124.66" gradientUnits="userSpaceOnUse">
<stop stop-color="#FDC78A"/>
<stop offset="0.697917" stop-color="#63ABCC"/>
</linearGradient>
<linearGradient id="paint7_linear" x1="503.186" y1="0" x2="503.186" y2="211.801" gradientUnits="userSpaceOnUse">
<stop stop-color="#FDC78A"/>
<stop offset="0.697917" stop-color="#63ABCC"/>
</linearGradient>
<linearGradient id="paint8_linear" x1="624.009" y1="261.908" x2="624.009" y2="366.217" gradientUnits="userSpaceOnUse">
<stop stop-color="#FDC78A"/>
<stop offset="0.697917" stop-color="#63ABCC"/>
</linearGradient>
<linearGradient id="paint9_linear" x1="571.565" y1="116.771" x2="571.565" y2="314.286" gradientUnits="userSpaceOnUse">
<stop stop-color="#FDC78A"/>
<stop offset="0.697917" stop-color="#63ABCC"/>
</linearGradient>
<linearGradient id="paint10_linear" x1="650.179" y1="374.033" x2="650.179" y2="469.545" gradientUnits="userSpaceOnUse">
<stop stop-color="#FDC78A"/>
<stop offset="0.697917" stop-color="#63ABCC"/>
</linearGradient>
<linearGradient id="paint11_linear" x1="551.929" y1="388.276" x2="551.929" y2="1039.3" gradientUnits="userSpaceOnUse">
<stop stop-color="#FDC78A"/>
<stop offset="0.697917" stop-color="#63ABCC"/>
</linearGradient>
<linearGradient id="paint12_linear" x1="259.993" y1="752.312" x2="259.993" y2="866.296" gradientUnits="userSpaceOnUse">
<stop stop-color="#FDC78A"/>
<stop offset="0.697917" stop-color="#63ABCC"/>
</linearGradient>
<linearGradient id="paint13_linear" x1="270.902" y1="561.12" x2="270.902" y2="576.106" gradientUnits="userSpaceOnUse">
<stop stop-color="#FDC78A"/>
<stop offset="0.697917" stop-color="#63ABCC"/>
</linearGradient>
<linearGradient id="paint14_linear" x1="50.4691" y1="406.93" x2="50.4691" y2="582.18" gradientUnits="userSpaceOnUse">
<stop stop-color="#FDC78A"/>
<stop offset="0.697917" stop-color="#63ABCC"/>
</linearGradient>
<linearGradient id="paint15_linear" x1="323.775" y1="559.827" x2="323.775" y2="572.057" gradientUnits="userSpaceOnUse">
<stop stop-color="#FDC78A"/>
<stop offset="0.697917" stop-color="#63ABCC"/>
</linearGradient>
<linearGradient id="paint16_linear" x1="173.071" y1="562.667" x2="173.071" y2="581.814" gradientUnits="userSpaceOnUse">
<stop stop-color="#FDC78A"/>
<stop offset="0.697917" stop-color="#63ABCC"/>
</linearGradient>
<linearGradient id="paint17_linear" x1="223.891" y1="470.81" x2="223.891" y2="546.528" gradientUnits="userSpaceOnUse">
<stop stop-color="#FDC78A"/>
<stop offset="0.697917" stop-color="#63ABCC"/>
</linearGradient>
<linearGradient id="paint18_linear" x1="285.466" y1="371.699" x2="285.466" y2="521.841" gradientUnits="userSpaceOnUse">
<stop stop-color="#FDC78A"/>
<stop offset="0.697917" stop-color="#63ABCC"/>
</linearGradient>
<linearGradient id="paint19_linear" x1="293.03" y1="540.876" x2="293.03" y2="597.635" gradientUnits="userSpaceOnUse">
<stop stop-color="#FDC78A"/>
<stop offset="0.697917" stop-color="#63ABCC"/>
</linearGradient>
<linearGradient id="paint20_linear" x1="185.906" y1="400.125" x2="185.906" y2="496.649" gradientUnits="userSpaceOnUse">
<stop stop-color="#FDC78A"/>
<stop offset="0.697917" stop-color="#63ABCC"/>
</linearGradient>
<linearGradient id="paint21_linear" x1="249.773" y1="544.25" x2="249.773" y2="603.154" gradientUnits="userSpaceOnUse">
<stop stop-color="#FDC78A"/>
<stop offset="0.697917" stop-color="#63ABCC"/>
</linearGradient>
<linearGradient id="paint22_linear" x1="85.5027" y1="698.835" x2="85.5027" y2="727.007" gradientUnits="userSpaceOnUse">
<stop stop-color="#FDC78A"/>
<stop offset="0.697917" stop-color="#63ABCC"/>
</linearGradient>
<linearGradient id="paint23_linear" x1="220.318" y1="623.117" x2="220.318" y2="766.652" gradientUnits="userSpaceOnUse">
<stop stop-color="#FDC78A"/>
<stop offset="0.697917" stop-color="#63ABCC"/>
</linearGradient>
<linearGradient id="paint24_linear" x1="72.8217" y1="656.632" x2="72.8217" y2="758.048" gradientUnits="userSpaceOnUse">
<stop stop-color="#FDC78A"/>
<stop offset="0.697917" stop-color="#63ABCC"/>
</linearGradient>
<linearGradient id="paint25_linear" x1="187.185" y1="372.712" x2="187.185" y2="692.818" gradientUnits="userSpaceOnUse">
<stop stop-color="#FDC78A"/>
<stop offset="0.697917" stop-color="#63ABCC"/>
</linearGradient>
<linearGradient id="paint26_linear" x1="187.744" y1="745.677" x2="187.744" y2="767.777" gradientUnits="userSpaceOnUse">
<stop stop-color="#FDC78A"/>
<stop offset="0.697917" stop-color="#63ABCC"/>
</linearGradient>
<linearGradient id="paint27_linear" x1="6.70574" y1="588.084" x2="6.70574" y2="622.133" gradientUnits="userSpaceOnUse">
<stop stop-color="#FDC78A"/>
<stop offset="0.697917" stop-color="#63ABCC"/>
</linearGradient>
<linearGradient id="paint28_linear" x1="301.634" y1="642.475" x2="301.634" y2="673.445" gradientUnits="userSpaceOnUse">
<stop stop-color="#FDC78A"/>
<stop offset="0.697917" stop-color="#63ABCC"/>
</linearGradient>
<linearGradient id="paint29_linear" x1="196.183" y1="666.838" x2="196.183" y2="695.095" gradientUnits="userSpaceOnUse">
<stop stop-color="#FDC78A"/>
<stop offset="0.697917" stop-color="#63ABCC"/>
</linearGradient>
<linearGradient id="paint30_linear" x1="191.277" y1="636.964" x2="191.277" y2="667.935" gradientUnits="userSpaceOnUse">
<stop stop-color="#FDC78A"/>
<stop offset="0.697917" stop-color="#63ABCC"/>
</linearGradient>
<linearGradient id="paint31_linear" x1="143.549" y1="643.023" x2="143.549" y2="677.101" gradientUnits="userSpaceOnUse">
<stop stop-color="#FDC78A"/>
<stop offset="0.697917" stop-color="#63ABCC"/>
</linearGradient>
<linearGradient id="paint32_linear" x1="227.363" y1="655.254" x2="227.363" y2="689.022" gradientUnits="userSpaceOnUse">
<stop stop-color="#FDC78A"/>
<stop offset="0.697917" stop-color="#63ABCC"/>
</linearGradient>
<linearGradient id="paint33_linear" x1="57.5123" y1="682.977" x2="57.5123" y2="717.054" gradientUnits="userSpaceOnUse">
<stop stop-color="#FDC78A"/>
<stop offset="0.697917" stop-color="#63ABCC"/>
</linearGradient>
<linearGradient id="paint34_linear" x1="300.987" y1="614.709" x2="300.987" y2="655.816" gradientUnits="userSpaceOnUse">
<stop stop-color="#FDC78A"/>
<stop offset="0.697917" stop-color="#63ABCC"/>
</linearGradient>
<linearGradient id="paint35_linear" x1="358.583" y1="648.534" x2="358.583" y2="674.12" gradientUnits="userSpaceOnUse">
<stop stop-color="#FDC78A"/>
<stop offset="0.697917" stop-color="#63ABCC"/>
</linearGradient>
<linearGradient id="paint36_linear" x1="63.9367" y1="605.123" x2="63.9367" y2="631.336" gradientUnits="userSpaceOnUse">
<stop stop-color="#FDC78A"/>
<stop offset="0.697917" stop-color="#63ABCC"/>
</linearGradient>
<linearGradient id="paint37_linear" x1="113.408" y1="403.218" x2="113.408" y2="437.295" gradientUnits="userSpaceOnUse">
<stop stop-color="#FDC78A"/>
<stop offset="0.697917" stop-color="#63ABCC"/>
</linearGradient>
<linearGradient id="paint38_linear" x1="197.813" y1="361.971" x2="197.813" y2="390.228" gradientUnits="userSpaceOnUse">
<stop stop-color="#FDC78A"/>
<stop offset="0.697917" stop-color="#63ABCC"/>
</linearGradient>
<linearGradient id="paint39_linear" x1="189.014" y1="325.996" x2="189.014" y2="384.605" gradientUnits="userSpaceOnUse">
<stop stop-color="#FDC78A"/>
<stop offset="0.697917" stop-color="#63ABCC"/>
</linearGradient>
<linearGradient id="paint40_linear" x1="185.725" y1="314.195" x2="185.725" y2="346.339" gradientUnits="userSpaceOnUse">
<stop stop-color="#FDC78A"/>
<stop offset="0.697917" stop-color="#63ABCC"/>
</linearGradient>
<linearGradient id="paint41_linear" x1="150.564" y1="373.386" x2="150.564" y2="421.719" gradientUnits="userSpaceOnUse">
<stop stop-color="#FDC78A"/>
<stop offset="0.697917" stop-color="#63ABCC"/>
</linearGradient>
<linearGradient id="paint42_linear" x1="121.095" y1="329.608" x2="121.095" y2="376.535" gradientUnits="userSpaceOnUse">
<stop stop-color="#FDC78A"/>
<stop offset="0.697917" stop-color="#63ABCC"/>
</linearGradient>
<linearGradient id="paint43_linear" x1="251.488" y1="356.179" x2="251.488" y2="389.975" gradientUnits="userSpaceOnUse">
<stop stop-color="#FDC78A"/>
<stop offset="0.697917" stop-color="#63ABCC"/>
</linearGradient>
<linearGradient id="paint44_linear" x1="304.636" y1="396.955" x2="304.636" y2="463.556" gradientUnits="userSpaceOnUse">
<stop stop-color="#FDC78A"/>
<stop offset="0.697917" stop-color="#63ABCC"/>
</linearGradient>
<linearGradient id="paint45_linear" x1="41.9638" y1="485.909" x2="41.9638" y2="514.166" gradientUnits="userSpaceOnUse">
<stop stop-color="#FDC78A"/>
<stop offset="0.697917" stop-color="#63ABCC"/>
</linearGradient>
<linearGradient id="paint46_linear" x1="37.8741" y1="463.345" x2="37.8741" y2="488.102" gradientUnits="userSpaceOnUse">
<stop stop-color="#FDC78A"/>
<stop offset="0.697917" stop-color="#63ABCC"/>
</linearGradient>
<linearGradient id="paint47_linear" x1="35.4782" y1="437.147" x2="35.4782" y2="469.46" gradientUnits="userSpaceOnUse">
<stop stop-color="#FDC78A"/>
<stop offset="0.697917" stop-color="#63ABCC"/>
</linearGradient>
<linearGradient id="paint48_linear" x1="366.386" y1="547.427" x2="366.386" y2="577.175" gradientUnits="userSpaceOnUse">
<stop stop-color="#FDC78A"/>
<stop offset="0.697917" stop-color="#63ABCC"/>
</linearGradient>
<linearGradient id="paint49_linear" x1="31.1249" y1="590.417" x2="31.1249" y2="663.38" gradientUnits="userSpaceOnUse">
<stop stop-color="#FDC78A"/>
<stop offset="0.697917" stop-color="#63ABCC"/>
</linearGradient>
<linearGradient id="paint50_linear" x1="337.847" y1="514.841" x2="337.847" y2="558.056" gradientUnits="userSpaceOnUse">
<stop stop-color="#FDC78A"/>
<stop offset="0.697917" stop-color="#63ABCC"/>
</linearGradient>
<linearGradient id="paint51_linear" x1="151.158" y1="489.254" x2="151.158" y2="519.17" gradientUnits="userSpaceOnUse">
<stop stop-color="#FDC78A"/>
<stop offset="0.697917" stop-color="#63ABCC"/>
</linearGradient>
<linearGradient id="paint52_linear" x1="114.886" y1="485.318" x2="114.886" y2="515.825" gradientUnits="userSpaceOnUse">
<stop stop-color="#FDC78A"/>
<stop offset="0.697917" stop-color="#63ABCC"/>
</linearGradient>
<linearGradient id="paint53_linear" x1="264.354" y1="404.202" x2="264.354" y2="434.118" gradientUnits="userSpaceOnUse">
<stop stop-color="#FDC78A"/>
<stop offset="0.697917" stop-color="#63ABCC"/>
</linearGradient>
</defs>
</svg>
